HIERARCHY
ROOT Hips
{
    OFFSET   0.000000   0.000000   0.000000
    CHANNELS 6 Xposition Yposition Zposition Zrotation Xrotation Yrotation
    JOINT Chest
    {
        OFFSET   0.000000   8.007240   0.000000
        CHANNELS 3 Zrotation Xrotation Yrotation
        JOINT Chest2
        {
            OFFSET   0.000000  22.077100   0.000000
            CHANNELS 3 Zrotation Xrotation Yrotation
            JOINT Neck
            {
                OFFSET   0.000000  23.254800   0.000000
                CHANNELS 3 Zrotation Xrotation Yrotation
                JOINT Head
                {
                    OFFSET   0.000000  14.370000   1.956600
                    CHANNELS 3 Zrotation Xrotation Yrotation
                    End Site
                    {
                        OFFSET   0.000000  19.566000   0.000000
                    }
                }
            }
            JOINT LeftCollar
            {
                OFFSET   3.911900  19.017000  -0.467064
                CHANNELS 3 Zrotation Xrotation Yrotation
                JOINT LeftShoulder
                {
                    OFFSET  10.383700   0.000000   0.000000
                    CHANNELS 3 Zrotation Xrotation Yrotation
                    JOINT LeftElbow
                    {
                        OFFSET  26.662100   0.001476   0.000517
                        CHANNELS 3 Zrotation Xrotation Yrotation
                        JOINT LeftWrist
                        {
                            OFFSET  28.869000  -0.000025  -0.000106
                            CHANNELS 3 Zrotation Xrotation Yrotation
                            JOINT LeftFinger0
                            {
                                OFFSET   2.044660  -2.323460   3.252850
                                CHANNELS 3 Zrotation Xrotation Yrotation
                                JOINT LeftFinger01
                                {
                                    OFFSET   3.088130   0.000000   0.000000
                                    CHANNELS 3 Zrotation Xrotation Yrotation
                                    JOINT LeftFinger02
                                    {
                                        OFFSET   2.639460   0.000000   0.000000
                                        CHANNELS 3 Zrotation Xrotation Yrotation
                                        End Site
                                        {
                                            OFFSET   2.582190   0.000000   0.000000
                                        }
                                    }
                                }
                            }
                            JOINT LeftFinger1
                            {
                                OFFSET   8.364480   0.000000   3.252850
                                CHANNELS 3 Zrotation Xrotation Yrotation
                                JOINT LeftFinger11
                                {
                                    OFFSET   4.646930   0.000000   0.000000
                                    CHANNELS 3 Zrotation Xrotation Yrotation
                                    JOINT LeftFinger12
                                    {
                                        OFFSET   2.323460   0.000000   0.000000
                                        CHANNELS 3 Zrotation Xrotation Yrotation
                                        End Site
                                        {
                                            OFFSET   2.273050   0.000000   0.000000
                                        }
                                    }
                                }
                            }
                            JOINT LeftFinger2
                            {
                                OFFSET   8.364490   0.000015   1.078090
                                CHANNELS 3 Zrotation Xrotation Yrotation
                                JOINT LeftFinger21
                                {
                                    OFFSET   5.111620   0.000000   0.000000
                                    CHANNELS 3 Zrotation Xrotation Yrotation
                                    JOINT LeftFinger22
                                    {
                                        OFFSET   2.788160   0.000016   0.000000
                                        CHANNELS 3 Zrotation Xrotation Yrotation
                                        End Site
                                        {
                                            OFFSET   2.727660   0.000000   0.000000
                                        }
                                    }
                                }
                            }
                            JOINT LeftFinger3
                            {
                                OFFSET   7.899780   0.000017  -1.078090
                                CHANNELS 3 Zrotation Xrotation Yrotation
                                JOINT LeftFinger31
                                {
                                    OFFSET   4.646930   0.000000   0.000000
                                    CHANNELS 3 Zrotation Xrotation Yrotation
                                    JOINT LeftFinger32
                                    {
                                        OFFSET   2.323470   0.000000   0.000000
                                        CHANNELS 3 Zrotation Xrotation Yrotation
                                        End Site
                                        {
                                            OFFSET   2.273050   0.000000   0.000000
                                        }
                                    }
                                }
                            }
                            JOINT LeftFinger4
                            {
                                OFFSET   7.435090   0.000000  -3.252850
                                CHANNELS 3 Zrotation Xrotation Yrotation
                                JOINT LeftFinger41
                                {
                                    OFFSET   3.717550   0.000000   0.000000
                                    CHANNELS 3 Zrotation Xrotation Yrotation
                                    JOINT LeftFinger42
                                    {
                                        OFFSET   1.858770   0.000000   0.000000
                                        CHANNELS 3 Zrotation Xrotation Yrotation
                                        End Site
                                        {
                                            OFFSET   1.818440   0.000000   0.000000
                                        }
                                    }
                                }
                            }
                        }
                    }
                }
            }
            JOINT RightCollar
            {
                OFFSET  -3.911900  19.017000  -0.467063
                CHANNELS 3 Zrotation Xrotation Yrotation
                JOINT RightShoulder
                {
                    OFFSET -10.383700   0.000019   0.000000
                    CHANNELS 3 Zrotation Xrotation Yrotation
                    JOINT RightElbow
                    {
                        OFFSET -26.662100   0.001175   0.000102
                        CHANNELS 3 Zrotation Xrotation Yrotation
                        JOINT RightWrist
                        {
                            OFFSET -28.869000   0.000016  -0.000079
                            CHANNELS 3 Zrotation Xrotation Yrotation
                            JOINT RightFinger0
                            {
                                OFFSET  -2.044660  -2.323490   3.252850
                                CHANNELS 3 Zrotation Xrotation Yrotation
                                JOINT RightFinger01
                                {
                                    OFFSET  -3.088140   0.000000   0.000000
                                    CHANNELS 3 Zrotation Xrotation Yrotation
                                    JOINT RightFinger02
                                    {
                                        OFFSET  -2.639460   0.000000   0.000000
                                        CHANNELS 3 Zrotation Xrotation Yrotation
                                        End Site
                                        {
                                            OFFSET  -2.582190   0.000000   0.000000
                                        }
                                    }
                                }
                            }
                            JOINT RightFinger1
                            {
                                OFFSET  -8.364480   0.000000   3.252850
                                CHANNELS 3 Zrotation Xrotation Yrotation
                                JOINT RightFinger11
                                {
                                    OFFSET  -4.646930   0.000000   0.000000
                                    CHANNELS 3 Zrotation Xrotation Yrotation
                                    JOINT RightFinger12
                                    {
                                        OFFSET  -2.323470   0.000000   0.000000
                                        CHANNELS 3 Zrotation Xrotation Yrotation
                                        End Site
                                        {
                                            OFFSET  -2.273050   0.000000   0.000000
                                        }
                                    }
                                }
                            }
                            JOINT RightFinger2
                            {
                                OFFSET  -8.364480   0.000000   1.078090
                                CHANNELS 3 Zrotation Xrotation Yrotation
                                JOINT RightFinger21
                                {
                                    OFFSET  -5.111620   0.000000   0.000000
                                    CHANNELS 3 Zrotation Xrotation Yrotation
                                    JOINT RightFinger22
                                    {
                                        OFFSET  -2.788160   0.000000   0.000000
                                        CHANNELS 3 Zrotation Xrotation Yrotation
                                        End Site
                                        {
                                            OFFSET  -2.727660   0.000000   0.000000
                                        }
                                    }
                                }
                            }
                            JOINT RightFinger3
                            {
                                OFFSET  -7.899780   0.000000  -1.078090
                                CHANNELS 3 Zrotation Xrotation Yrotation
                                JOINT RightFinger31
                                {
                                    OFFSET  -4.646930   0.000000   0.000000
                                    CHANNELS 3 Zrotation Xrotation Yrotation
                                    JOINT RightFinger32
                                    {
                                        OFFSET  -2.323470   0.000000   0.000000
                                        CHANNELS 3 Zrotation Xrotation Yrotation
                                        End Site
                                        {
                                            OFFSET  -2.273050   0.000000   0.000000
                                        }
                                    }
                                }
                            }
                            JOINT RightFinger4
                            {
                                OFFSET  -7.435090   0.000000  -3.252850
                                CHANNELS 3 Zrotation Xrotation Yrotation
                                JOINT RightFinger41
                                {
                                    OFFSET  -3.717550   0.000000   0.000000
                                    CHANNELS 3 Zrotation Xrotation Yrotation
                                    JOINT RightFinger42
                                    {
                                        OFFSET  -1.858770   0.000000   0.000000
                                        CHANNELS 3 Zrotation Xrotation Yrotation
                                        End Site
                                        {
                                            OFFSET  -1.818440   0.000000   0.000000
                                        }
                                    }
                                }
                            }
                        }
                    }
                }
            }
        }
    }
    JOINT LeftHip
    {
        OFFSET   9.783040   0.000000   0.000000
        CHANNELS 3 Zrotation Xrotation Yrotation
        JOINT LeftKnee
        {
            OFFSET   0.000032 -41.789100  -0.002222
            CHANNELS 3 Zrotation Xrotation Yrotation
            JOINT LeftAnkle
            {
                OFFSET   0.000087 -41.133200  -0.000135
                CHANNELS 3 Zrotation Xrotation Yrotation
                JOINT LeftToe
                {
                    OFFSET   0.000000  -6.358960  14.674500
                    CHANNELS 3 Zrotation Xrotation Yrotation
                    End Site
                    {
                        OFFSET   0.000000   0.000000   3.913200
                    }
                }
            }
        }
    }
    JOINT RightHip
    {
        OFFSET  -9.783040   0.000000   0.000000
        CHANNELS 3 Zrotation Xrotation Yrotation
        JOINT RightKnee
        {
            OFFSET   0.000047 -41.789100  -0.000896
            CHANNELS 3 Zrotation Xrotation Yrotation
            JOINT RightAnkle
            {
                OFFSET  -0.000117 -41.133300  -0.000248
                CHANNELS 3 Zrotation Xrotation Yrotation
                JOINT RightToe
                {
                    OFFSET   0.000000  -6.358970  14.674500
                    CHANNELS 3 Zrotation Xrotation Yrotation
                    End Site
                    {
                        OFFSET   0.000000   0.000000   3.913200
                    }
                }
            }
        }
    }
}
MOTION
Frames: 6
Frame Time:   0.016667
  1.605940  89.534900   1.264310  -2.633150  -2.074550  -4.726450   0.939649   2.790170   0.330375   1.866480   5.585330   0.615931   0.272768  -0.234088   0.002734   0.451686  -0.474728   7.748350  -5.212270   0.819674   0.143474 -68.968400  17.423600  -5.226690  -4.059550 -10.270100 -12.247000   0.092803 -11.554800  11.465500  38.290700  22.481700 -62.503000 -18.850200   0.009578   0.003315  -4.425090  -0.002088  -0.000000 -33.792000   6.721170  -9.919660 -28.125800   0.001723  -0.008662 -19.688100  -0.002064   0.000000 -28.541400   2.029870  -3.727300 -37.390900   0.003354   0.001889 -24.902300  -0.006033   0.002108 -28.007900  -1.018670   1.915470 -32.076600   0.003563   0.002273 -21.363000   0.004566   0.002314 -31.213400  -1.124630   1.855240 -46.847400   0.002729   0.003076 -31.200300   0.004185   0.002701   6.563040   0.154057   9.455150  70.725300  12.373400  -0.434430   1.318580  -0.363329   7.534000  -8.686250 -18.712400   1.470600 -38.606200  36.772800  73.300800  32.629700   0.001670  -0.007815  11.314800   0.004107  -0.007449  29.242500   3.198370   5.696290  24.056200  -0.003220  -0.005206  16.839300   0.007600  -0.004155  28.353100   3.112040   5.743800  36.316700   0.007918  -0.004346  24.186900   0.007734  -0.003412  28.476800   2.033180   3.728250  36.579200   0.002455   0.008090  24.361700  -0.004404  -0.002727  37.260000  -0.312091  -0.410613  55.879600  -0.000159   0.001270  37.223800  -0.004925   0.004721   2.672840   6.026010   3.616790   0.553528   1.110440   5.678180  -2.111840  -4.001080  15.008100   0.000000   0.000000  -0.000000   0.255512   1.332820  -5.446990   1.736380   3.541000  -3.862510  -5.192320  -1.533730  -0.614722   0.000000   0.000000   0.000000
  1.605880  89.534900   1.270920  -2.633900  -2.080670  -4.733100   0.940391   2.790080   0.330358   1.867980   5.585180   0.615882   0.272509  -0.225206   0.002740   0.449746  -0.456932   7.749400  -5.212210   0.831075   0.143479 -68.984900  17.416800  -5.227570  -4.051370 -10.242500 -12.234300   0.101696 -11.528100  11.480000  38.299800  22.451500 -62.453100 -18.888000   0.009595   0.003330  -4.444020  -0.002098  -0.000000 -33.795800   6.707110  -9.898090 -28.126700   0.001725  -0.008672 -19.688700  -0.002068   0.000000 -28.544900   2.006010  -3.682950 -37.442800   0.003356   0.001893 -24.936800  -0.006039   0.002111 -28.007500  -1.028950   1.934500 -32.089800   0.003566   0.002277 -21.371800   0.004574   0.002317 -31.244900  -1.136890   1.873110 -46.895300   0.002730   0.003081 -31.232200   0.004182   0.002704   6.562010   0.160275   9.455140  70.732000  12.377900  -0.427707   1.319640  -0.370698   7.534020  -8.692770 -18.706300   1.471200 -38.632600  36.784000  73.293800  32.616800   0.001670  -0.007815  11.308400   0.004107  -0.007431  29.233600   3.198370   5.696290  24.048700  -0.003222  -0.005206  16.834000   0.007601  -0.004150  28.353200   3.112040   5.743800  36.310500   0.007917  -0.004341  24.182800   0.007732  -0.003409  28.476500   2.033160   3.735800  36.572100   0.002452   0.008094  24.356900  -0.004402  -0.002725  37.256900  -0.312071  -0.410620  55.879600  -0.000158   0.001267  37.220800  -0.004921   0.004724   2.672100   6.035410   3.616760   0.553621   1.115290   5.678160  -2.112150  -4.002690  15.008400  -0.000000   0.000000   0.000000   0.255783   1.326560  -5.446890   1.731410   3.555740  -3.871250  -5.188500  -1.540540  -0.602485  -0.000000   0.000000   0.000000
  1.605820  89.534900   1.281550  -2.635010  -2.091110  -4.739760   0.941699   2.789940   0.330234   1.870610   5.584910   0.615543   0.272250  -0.212020   0.002746   0.448646  -0.430417   7.751960  -5.212100   0.847902   0.143510 -69.008400  17.409900  -5.231730  -4.042170 -10.215100 -12.215700   0.126790 -11.483400  11.500900  38.309000  22.421300 -62.403200 -18.925900   0.009625   0.003349  -4.462950  -0.002115  -0.000000 -33.799500   6.693040  -9.876520 -28.127900   0.001727  -0.008698 -19.689500  -0.002079   0.000000 -28.548300   1.982150  -3.638600 -37.494600   0.003361   0.001903 -24.971400  -0.006057   0.002119 -28.007200  -1.039220   1.953520 -32.109600   0.003574   0.002290 -21.385000   0.004595   0.002327 -31.276500  -1.149140   1.890980 -46.943200   0.002733   0.003094 -31.264200   0.004174   0.002713   6.560620   0.169067   9.455110  70.741600  12.384600  -0.413548   1.321640  -0.384777   7.534040  -8.708310 -18.700200   1.471810 -38.671100  36.800500  73.283500  32.603900   0.001665  -0.007811  11.301900   0.004104  -0.007404  29.220000   3.198370   5.696290  24.037500  -0.003228  -0.005206  16.826200   0.007601  -0.004135  28.353200   3.112040   5.743800  36.300400   0.007916  -0.004329  24.176100   0.007731  -0.003401  28.476200   2.033140   3.743350  36.559000   0.002447   0.008109  24.348200  -0.004399  -0.002718  37.252000  -0.312030  -0.410637  55.879600  -0.000158   0.001259  37.215800  -0.004912   0.004732   2.670980   6.049920   3.616760   0.553736   1.124260   5.678150  -2.112400  -4.007060  15.008700  -0.000000   0.000000  -0.000000   0.257681   1.282740  -5.446210   1.719280   3.624080  -3.886410  -5.182520  -1.551480  -0.584673   0.000000   0.000000  -0.000000
  1.605820  89.534900   1.289330  -2.637610  -2.099850  -4.739100   0.943082   2.789830   0.328798   1.873450   5.584670   0.612576   0.274046  -0.203889   0.002745   0.452164  -0.413721   7.756910  -5.212070   0.858204   0.149746 -69.018900  17.415200  -5.241730  -4.033580 -10.217600 -12.204000   0.166863 -11.445400  11.512400  38.298100  22.422300 -62.419400 -18.884100   0.009652   0.003352  -4.442050  -0.002127   0.000000 -33.799700   6.702710  -9.889280 -28.128700   0.001730  -0.008738 -19.690000  -0.002094   0.000000 -28.542200   2.009330  -3.689020 -37.458800   0.003369   0.001919 -24.947500  -0.006085   0.002131 -28.006100  -1.027440   1.931160 -32.123100   0.003586   0.002309 -21.394000   0.004628   0.002342 -31.262600  -1.135640   1.869610 -46.921600   0.002737   0.003115 -31.249800   0.004162   0.002727   6.563880   0.173143   9.455100  70.744900  12.386300  -0.395171   1.323890  -0.401015   7.530020  -8.734010 -18.701300   1.466780 -38.669700  36.805300  73.263100  32.624200   0.001640  -0.007782  11.312100   0.004078  -0.007391  29.211600   3.189090   5.681300  24.029900  -0.003241  -0.005205  16.820900   0.007597  -0.004111  28.355000   3.103350   5.727830  36.291400   0.007917  -0.004311  24.170100   0.007734  -0.003388  28.477000   2.026170   3.730680  36.542400   0.002444   0.008134  24.337200  -0.004394  -0.002704  37.247300  -0.311975  -0.410660  55.874000  -0.000153   0.001245  37.211100  -0.004900   0.004747   2.670390   6.057730   3.616830   0.553736   1.135920   5.678170  -2.112020  -4.016490  15.006400   0.000000   0.000000   0.000000   0.261884   1.106720  -5.443840   1.695470   3.823750  -3.900440  -5.178320  -1.559290  -0.576266  -0.000000   0.000000   0.000000
  1.605820  89.534900   1.296450  -2.641160  -2.109030  -4.737310   0.944276   2.789730   0.327468   1.875910   5.584440   0.609898   0.277913  -0.199654   0.002743   0.458411  -0.404974   7.760360  -5.212140   0.863080   0.160176 -69.023500  17.429100  -5.253160  -4.021010 -10.221000 -12.198200   0.222530 -11.411100  11.516900  38.273400  22.417700 -62.443800 -18.826600   0.009688   0.003354  -4.413320  -0.002142  -0.000000 -33.795800   6.722820  -9.920800 -28.129000   0.001734  -0.008790 -19.690300  -0.002114   0.000000 -28.531400   2.055470  -3.774720 -37.388300   0.003380   0.001941 -24.900600  -0.006122   0.002147 -28.003400  -1.004040   1.887060 -32.129900   0.003603   0.002334 -21.398500   0.004671   0.002362 -31.232600  -1.108850   1.827470 -46.875300   0.002743   0.003143 -31.218900   0.004146   0.002745   6.570850   0.174646   9.455100  70.747400  12.390200  -0.374945   1.326070  -0.417015   7.520800  -8.762360 -18.705300   1.458630 -38.656400  36.804700  73.246200  32.653500   0.001600  -0.007735  11.326700   0.004033  -0.007375  29.207900   3.179810   5.666320  24.026100  -0.003258  -0.005205  16.818300   0.007589  -0.004079  28.356700   3.094660   5.711850  36.286200   0.007919  -0.004288  24.166600   0.007738  -0.003370  28.478200   2.016080   3.712220  36.531700   0.002439   0.008166  24.330200  -0.004388  -0.002686  37.244500  -0.311919  -0.410683  55.868400  -0.000146   0.001228  37.208400  -0.004884   0.004767   2.669740   6.066800   3.617000   0.553713   1.143450   5.678220  -2.111860  -4.023210  15.001600  -0.000000   0.000000   0.000000   0.264445   0.968264  -5.440700   1.679250   3.969800  -3.913980  -5.175050  -1.566800  -0.570122  -0.000000   0.000000   0.000000
  1.606010  89.534900   1.302660  -2.643330  -2.119040  -4.734210   0.944647   2.789650   0.327556   1.876630   5.584290   0.610070   0.283547  -0.199178   0.002743   0.466957  -0.404074   7.760310  -5.212280   0.859386   0.169330 -69.021500  17.454000  -5.262020  -4.010300 -10.223200 -12.199600   0.298624 -11.387900  11.495900  38.243300  22.401500 -62.465800 -18.805800   0.009746   0.003394  -4.402900  -0.002162   0.000064 -33.761900   6.750860  -9.974730 -28.106700   0.001739  -0.008853 -19.674700  -0.002138  -0.000000 -28.519600   2.104180  -3.865420 -37.285900   0.003393   0.001967 -24.832400  -0.006167   0.002166 -27.998500  -0.973782   1.830650 -32.098400   0.003623   0.002363 -21.377500   0.004725   0.002385 -31.182800  -1.074170   1.773630 -46.799000   0.002751   0.003175 -31.168200   0.004126   0.002765   6.580240   0.173056   9.455430  70.751200  12.417600  -0.356978   1.327720  -0.429186   7.507530  -8.787750 -18.716100   1.451160 -38.628800  36.799000  73.265500  32.668700   0.001562  -0.007693  11.334300   0.003986  -0.007344  29.221500   3.186090   5.674240  24.038800  -0.003276  -0.005207  16.827100   0.007583  -0.004041  28.355000   3.103350   5.727630  36.302200   0.007919  -0.004262  24.177200   0.007739  -0.003346  28.478900   2.010600   3.701770  36.557100   0.002427   0.008202  24.347100  -0.004379  -0.002666  37.254500  -0.311879  -0.410700  55.883400  -0.000141   0.001209  37.218300  -0.004862   0.004791   2.668570   6.083760   3.617600   0.553817   1.138030   5.678320  -2.110930  -4.022610  14.995900   0.000000   0.000000  -0.000000   0.267431   1.076340  -5.437610   1.686110   3.878970  -3.924140  -5.173450  -1.574250  -0.563910  -0.000000   0.000000   0.000000
